<svg version="1.1" viewBox="0.0 0.0 154.5275590551181 120.67191601049869" fill="none" stroke="none" stroke-linecap="square" stroke-miterlimit="10" xmlns:xlink="http://www.w3.org/1999/xlink" xmlns="http://www.w3.org/2000/svg"><clipPath id="p.0"><path d="m0 0l154.52756 0l0 120.67191l-154.52756 0l0 -120.67191z" clip-rule="nonzero"/></clipPath><g clip-path="url(#p.0)"><path fill="#000000" fill-opacity="0.0" d="m0 0l154.52756 0l0 120.67191l-154.52756 0z" fill-rule="evenodd"/><path fill="#000000" fill-opacity="0.0" d="m40.48624 53.742287c-2.0451965 20.512383 5.0046005 41.844902 0 61.84227" fill-rule="evenodd"/><path stroke="#000000" stroke-width="3.0" stroke-linejoin="round" stroke-linecap="butt" d="m40.48624 53.742287c-2.0451965 20.512383 5.0046005 41.844902 0 61.84227" fill-rule="evenodd"/><path fill="#000000" fill-opacity="0.0" d="m73.52758 52.04592c2.550209 12.740326 0.84817505 25.976875 0.84817505 38.969925c0 6.78302 -3.8867416 26.395721 -0.84817505 20.331367c9.28363 -18.52826 0.614624 -61.01562 21.179543 -58.453114c17.874847 2.2273064 8.4711 35.358074 8.4711 53.37116" fill-rule="evenodd"/><path stroke="#000000" stroke-width="3.0" stroke-linejoin="round" stroke-linecap="butt" d="m73.52758 52.04592c2.550209 12.740326 0.84817505 25.976875 0.84817505 38.969925c0 6.78302 -3.8867416 26.395721 -0.84817505 20.331367c9.28363 -18.52826 0.614624 -61.01562 21.179543 -58.453114c17.874847 2.2273064 8.4711 35.358074 8.4711 53.37116" fill-rule="evenodd"/><path fill="#000000" fill-opacity="0.0" d="m37.94692 36.795734c0.49578857 -0.74264526 3.28442 0.35359192 2.5409737 0.84817886" fill-rule="evenodd"/><path stroke="#000000" stroke-width="3.0" stroke-linejoin="round" stroke-linecap="butt" d="m37.94692 36.795734c0.49578857 -0.74264526 3.28442 0.35359192 2.5409737 0.84817886" fill-rule="evenodd"/><path fill="#000000" fill-opacity="0.0" d="m20.88674 40.243027l44.913383 0l0 33.921265l-44.913383 0z" fill-rule="evenodd"/><path fill="#000000" d="m34.35549 60.763027l-1.046875 0l0 -6.71875q-0.390625 0.359375 -1.015625 0.734375q-0.6093769 0.359375 -1.0937519 0.53125l0 -1.015625q0.8750019 -0.421875 1.5312519 -1.0q0.671875 -0.59375 0.953125 -1.15625l0.671875 0l0 8.625z" fill-rule="nonzero"/><path fill="#000000" fill-opacity="0.0" d="m51.887383 39.535263l44.91339 0l0 33.921265l-44.91339 0z" fill-rule="evenodd"/><path fill="#000000" d="m66.93426 59.03964l0 1.015625l-5.6875 0q0 -0.375 0.125 -0.734375q0.21875 -0.578125 0.6875 -1.140625q0.484375 -0.5625 1.390625 -1.296875q1.40625 -1.15625 1.890625 -1.828125q0.5 -0.671875 0.5 -1.265625q0 -0.625 -0.453125 -1.046875q-0.453125 -0.4375 -1.171875 -0.4375q-0.765625 0 -1.21875 0.453125q-0.453125 0.453125 -0.46875 1.265625l-1.078125 -0.109375q0.109375 -1.21875 0.828125 -1.84375q0.734375 -0.640625 1.96875 -0.640625q1.234375 0 1.953125 0.6875q0.71875 0.6875 0.71875 1.703125q0 0.515625 -0.21875 1.015625q-0.203125 0.484375 -0.703125 1.046875q-0.484375 0.546875 -1.609375 1.5q-0.953125 0.796875 -1.234375 1.09375q-0.265625 0.28125 -0.4375 0.5625l4.21875 0z" fill-rule="nonzero"/><path fill="#000000" fill-opacity="0.0" d="m116.73606 61.36524c5.8210983 2.3274574 12.813911 -0.21351624 18.635002 -2.5409737" fill-rule="evenodd"/><path stroke="#000000" stroke-width="3.0" stroke-linejoin="round" stroke-linecap="butt" d="m116.73606 61.36524c5.8210983 2.3274574 12.813911 -0.21351624 18.635002 -2.5409737" fill-rule="evenodd"/><path fill="#000000" fill-opacity="0.0" d="m127.74788 42.726585c0 24.241165 -14.077263 72.00973 10.163895 72.00973" fill-rule="evenodd"/><path stroke="#000000" stroke-width="3.0" stroke-linejoin="round" stroke-linecap="butt" d="m127.74788 42.726585c0 24.241165 -14.077263 72.00973 10.163895 72.00973" fill-rule="evenodd"/><path fill="#000000" fill-opacity="0.0" d="m127.98248 37.54839l44.91339 0l0 33.92126l-44.91339 0z" fill-rule="evenodd"/><path fill="#000000" d="m137.48248 55.802765l1.0625 -0.140625q0.171875 0.890625 0.609375 1.296875q0.4375 0.390625 1.0625 0.390625q0.75 0 1.265625 -0.515625q0.515625 -0.515625 0.515625 -1.28125q0 -0.71875 -0.484375 -1.1875q-0.46875 -0.484375 -1.203125 -0.484375q-0.296875 0 -0.75 0.125l0.125 -0.9375q0.109375 0.015625 0.171875 0.015625q0.671875 0 1.203125 -0.34375q0.546875 -0.359375 0.546875 -1.09375q0 -0.578125 -0.390625 -0.953125q-0.390625 -0.390625 -1.015625 -0.390625q-0.609375 0 -1.03125 0.390625q-0.40625 0.390625 -0.515625 1.15625l-1.0625 -0.1875q0.1875 -1.046875 0.875 -1.625q0.6875 -0.59375 1.703125 -0.59375q0.703125 0 1.296875 0.3125q0.59375 0.296875 0.90625 0.8125q0.3125 0.515625 0.3125 1.109375q0 0.546875 -0.296875 1.015625q-0.296875 0.453125 -0.875 0.71875q0.75 0.171875 1.171875 0.734375q0.421875 0.546875 0.421875 1.390625q0 1.125 -0.828125 1.90625q-0.8125 0.78125 -2.0625 0.78125q-1.125 0 -1.875 -0.671875q-0.75 -0.6875 -0.859375 -1.75z" fill-rule="nonzero"/><path fill="#000000" fill-opacity="0.0" d="m127.98248 91.46866l44.91339 0l0 33.921257l-44.91339 0z" fill-rule="evenodd"/><path fill="#000000" d="m140.85748 111.988655l0 -2.0625l-3.71875 0l0 -0.96875l3.921875 -5.5625l0.859375 0l0 5.5625l1.15625 0l0 0.96875l-1.15625 0l0 2.0625l-1.0625 0zm0 -3.03125l0 -3.859375l-2.6875 3.859375l2.6875 0z" fill-rule="nonzero"/><path fill="#000000" fill-opacity="0.0" d="m20.062077 10.2673435l44.913387 0l0 33.921257l-44.913387 0z" fill-rule="evenodd"/><path fill="#000000" d="m29.562077 28.537344l1.109375 -0.09375q0.125 0.8125 0.5625 1.21875q0.453125 0.40625 1.09375 0.40625q0.75 0 1.28125 -0.578125q0.53125 -0.578125 0.53125 -1.515625q0 -0.90625 -0.515625 -1.421875q-0.5 -0.53125 -1.328125 -0.53125q-0.5 0 -0.921875 0.234375q-0.40625 0.234375 -0.640625 0.59375l-0.984375 -0.125l0.828125 -4.40625l4.28125 0l0 1.0l-3.4375 0l-0.453125 2.3125q0.765625 -0.546875 1.609375 -0.546875q1.125 0 1.890625 0.78125q0.78125 0.78125 0.78125 2.015625q0 1.15625 -0.671875 2.015625q-0.828125 1.03125 -2.25 1.03125q-1.171875 0 -1.921875 -0.65625q-0.734375 -0.65625 -0.84375 -1.734375z" fill-rule="nonzero"/></g></svg>